<svg version="1.1" id="Layer_1" xmlns="http://www.w3.org/2000/svg" xmlns:xlink="http://www.w3.org/1999/xlink" x="0px" y="0px"
	 width="100%" viewBox="0 0 1024 1024" enable-background="new 0 0 1024 1024" xml:space="preserve">
<path fill="#000000" opacity="1.000000" stroke="none" 
	d="
M573.000000,1025.000000 
	C382.000000,1025.000000 191.500000,1025.000000 1.000000,1025.000000 
	C1.000000,683.666687 1.000000,342.333344 1.000000,1.000000 
	C342.333344,1.000000 683.666687,1.000000 1025.000000,1.000000 
	C1025.000000,342.333344 1025.000000,683.666687 1025.000000,1025.000000 
	C874.500000,1025.000000 724.000000,1025.000000 573.000000,1025.000000 
M178.764114,593.952454 
	C186.926559,595.398071 195.125290,598.178955 203.242493,597.958374 
	C213.892059,597.669128 224.742493,595.984863 235.035507,593.174988 
	C256.973480,587.186096 274.533966,574.251770 287.694275,555.732056 
	C301.721405,535.992554 308.497467,513.805969 306.983490,489.623413 
	C305.588165,467.336761 296.816010,447.480865 282.412476,430.711945 
	C261.180634,405.993317 233.954193,393.750793 201.050537,395.941772 
	C192.027039,396.542633 183.096466,398.539032 173.882507,400.148773 
	C173.882507,400.148773 173.642868,400.403595 173.027252,400.627991 
	C170.100281,401.674896 167.173309,402.721832 163.941101,404.081909 
	C163.941101,404.081909 163.635391,404.394623 163.096725,404.725433 
	C159.978729,406.635284 156.834091,408.503143 153.746948,410.461639 
	C126.932587,427.472900 111.628105,452.430786 107.163834,483.196594 
	C105.390442,495.418030 105.903564,508.421326 109.311722,521.162231 
	C115.549103,544.479736 127.979385,563.181702 146.913254,577.712402 
	C156.296844,584.913818 166.751266,590.299316 178.020782,594.061584 
	C178.020782,594.061584 178.000626,593.940918 178.764114,593.952454 
M351.096558,529.111877 
	C352.271149,530.688232 353.460724,533.641724 354.617950,533.629028 
	C366.866974,533.495605 379.367584,534.282227 391.295013,532.082825 
	C408.491608,528.911804 420.700226,509.357635 416.577728,488.182770 
	C412.826385,468.914276 399.165955,457.190704 379.639465,456.947906 
	C372.653351,456.861023 365.664856,456.899750 358.678009,456.954407 
	C351.742920,457.008667 351.032745,457.717407 351.026764,464.812164 
	C351.008942,485.940216 351.042419,507.068329 351.096558,529.111877 
M924.133362,517.547546 
	C928.454590,510.545532 930.259827,502.976501 930.101196,494.714722 
	C929.766602,477.284241 919.408386,462.716553 903.354553,457.704987 
	C887.033508,452.609955 869.276978,458.449188 859.389648,472.162720 
	C846.459900,490.095917 851.940979,519.295593 870.151001,529.492554 
	C889.623291,540.396362 910.184265,536.053894 924.133362,517.547546 
M803.612854,482.296692 
	C803.415649,466.496765 793.802795,458.286621 778.410339,457.148285 
	C769.472595,456.487274 760.448059,457.021423 751.462952,456.966614 
	C747.713562,456.943756 745.993408,458.747467 745.996582,462.458252 
	C746.015259,484.424042 746.033386,506.389923 745.979004,528.355591 
	C745.967102,533.148315 748.704285,534.113098 752.780945,534.103699 
	C756.824036,534.094360 759.105713,532.725037 759.046875,528.346130 
	C758.973083,522.856262 758.896118,517.353088 759.217651,511.878998 
	C759.320984,510.119995 760.221680,507.769531 761.557434,506.843323 
	C765.260437,504.275970 772.304932,506.387115 774.591187,510.393738 
	C777.559143,515.595093 780.749878,520.705750 783.243896,526.131592 
	C786.165588,532.487854 790.650024,534.975647 797.518372,534.093506 
	C802.203979,533.491699 802.952026,532.739990 800.701660,528.498352 
	C797.272766,522.035583 793.637512,515.678406 789.945923,509.360504 
	C788.190857,506.356781 788.244202,504.129242 791.631470,502.436920 
	C799.562561,498.474457 803.250061,491.845673 803.612854,482.296692 
M664.065369,497.486969 
	C664.291260,502.305206 664.255920,507.153046 664.797546,511.935547 
	C665.908691,521.746765 671.388550,528.490417 680.351318,532.338501 
	C689.485779,536.260315 699.067566,536.370361 708.191040,533.121460 
	C716.831116,530.044678 724.434570,524.008850 725.065613,514.413940 
	C726.211243,496.995972 725.767944,479.469482 725.780457,461.988129 
	C725.781555,460.472504 724.626160,458.247375 723.354919,457.560394 
	C717.420959,454.354004 711.998901,457.717865 711.964172,464.424988 
	C711.891724,478.417877 712.026428,492.413116 711.818237,506.403534 
	C711.695801,514.626465 705.517639,521.120056 697.668640,521.894714 
	C687.683044,522.880249 681.005127,518.510437 679.051758,509.383026 
	C678.361328,506.156494 678.127747,502.783661 678.095459,499.473602 
	C677.979980,487.647034 678.085388,475.818451 678.015747,463.991211 
	C677.979736,457.878021 676.975769,456.953186 671.074036,456.967163 
	C665.192566,456.981079 664.157776,457.931885 664.112549,464.007355 
	C664.031982,474.834930 664.073792,485.663422 664.065369,497.486969 
M630.708374,531.286865 
	C637.311218,528.018921 642.470764,523.199402 646.061157,516.770691 
	C647.545410,514.112915 647.019531,512.249878 643.595032,512.037903 
	C637.864563,511.683167 632.648865,511.793732 628.150452,516.783325 
	C621.611206,524.036560 607.861633,524.475647 600.111511,518.410034 
	C588.840515,509.588684 585.701172,493.422028 592.678650,481.108582 
	C600.416138,467.453827 620.164917,464.495300 629.616821,475.990631 
	C633.108887,480.237671 636.845398,481.269836 641.733093,481.044922 
	C647.192383,480.793671 648.597107,478.423889 645.843323,473.773010 
	C640.514587,464.773315 632.270142,459.492676 622.480652,457.100311 
	C605.401306,452.926422 588.861450,460.356293 580.201721,475.332336 
	C572.147339,489.261475 574.240051,510.366577 584.852295,522.232971 
	C596.348694,535.088013 614.023438,538.754150 630.708374,531.286865 
M481.005920,463.417297 
	C481.455444,458.632812 479.134369,456.868652 474.508423,456.926605 
	C463.014130,457.070709 451.516724,457.037109 440.021179,456.972992 
	C435.846344,456.949707 433.966400,458.758606 433.975006,462.989502 
	C434.020111,485.148376 433.989227,507.307495 433.920563,529.466370 
	C433.910950,532.569458 435.078857,534.079102 438.309937,534.062317 
	C450.805054,533.997192 463.300720,534.005249 475.796112,534.023804 
	C480.084137,534.030151 481.010986,531.460693 481.047272,527.799072 
	C481.085144,523.976624 480.259827,521.160339 475.679230,521.168030 
	C470.681335,521.176392 465.683319,521.091553 460.685364,521.091553 
	C446.334564,521.091492 446.332947,521.100159 447.225281,506.635864 
	C447.234863,506.480316 447.567261,506.344696 448.188232,505.849365 
	C448.188232,509.781403 448.188232,513.324890 448.188232,516.868347 
	C448.934570,514.540955 448.928345,512.237244 448.935699,509.933594 
	C448.962494,501.537415 449.404358,501.078003 457.592468,501.020721 
	C462.257233,500.988098 466.922241,500.956360 471.587006,500.967407 
	C475.323120,500.976288 477.008514,499.182129 477.010925,495.427521 
	C477.013397,491.589294 475.117401,489.989532 471.473328,489.992188 
	C467.808136,489.994843 464.142975,489.945068 460.477783,489.944977 
	C448.652130,489.944733 448.651947,489.949310 448.997345,477.900085 
	C449.168365,471.933075 450.075897,470.974091 456.095886,470.916809 
	C463.351929,470.847778 470.609100,470.900482 477.865814,470.900482 
	C477.866211,470.617676 477.866608,470.334869 477.867035,470.052063 
	C469.276978,470.052063 460.686920,470.052063 452.096863,470.052063 
	C459.661896,469.042908 467.228241,469.022919 474.794403,469.052063 
	C478.129486,469.064911 480.833893,468.361176 481.005920,463.417297 
M551.744629,500.206635 
	C556.875549,486.185425 562.006470,472.164185 567.135193,458.148895 
	C558.103882,454.590088 552.915527,456.533203 550.053833,464.924744 
	C545.111755,479.416565 540.449890,494.003906 535.659546,508.547546 
	C535.086914,510.286102 534.586243,512.068665 533.806091,513.714050 
	C532.453918,516.565979 530.797424,515.936340 529.474426,513.710327 
	C528.811646,512.595215 528.626526,511.199402 528.204956,509.937378 
	C523.100708,494.656708 518.245911,479.285919 512.780334,464.135559 
	C509.986847,456.392151 505.139343,454.933197 496.363434,458.125671 
	C496.599243,459.323517 496.688660,460.641724 497.120392,461.836212 
	C501.183838,473.079834 505.325348,484.295227 509.405029,495.533051 
	C513.249573,506.123138 516.904236,516.784729 520.914612,527.311157 
	C523.615540,534.400391 524.252014,534.303894 534.261108,534.126465 
	C540.039185,534.024048 541.311523,529.951172 542.769226,525.907104 
	C545.758301,517.614380 548.572144,509.258453 551.744629,500.206635 
M835.053040,466.580566 
	C835.048096,465.414459 834.977051,464.244263 835.049622,463.082977 
	C835.362671,458.076752 832.519409,456.931824 828.155823,456.906219 
	C823.636780,456.879700 821.907166,458.828949 821.924255,463.232513 
	C822.007385,484.710175 821.987732,506.188385 821.939331,527.666260 
	C821.930481,531.572876 823.031372,534.017700 827.547363,534.083435 
	C833.715759,534.173279 835.005737,533.117981 835.020813,526.527405 
	C835.065918,506.870422 835.046448,487.213226 835.053040,466.580566 
M452.500641,456.118622 
	C461.687988,456.118622 470.875305,456.118622 480.062653,456.118622 
	C480.051392,455.819489 480.040131,455.520355 480.028870,455.221222 
	C464.941010,455.221222 449.853180,455.221222 434.765320,455.221222 
	C434.764160,455.521179 434.763000,455.821106 434.761841,456.121063 
	C440.341644,456.121063 445.921448,456.121063 452.500641,456.118622 
M709.987305,501.756989 
	C710.055054,502.843445 710.122803,503.929901 710.190552,505.016357 
	C710.343384,505.006073 710.496155,504.995789 710.648987,504.985504 
	C710.648987,490.046906 710.648987,475.108276 710.648987,460.169647 
	C710.427856,460.171539 710.206787,460.173431 709.985657,460.175323 
	C709.985657,473.764526 709.985657,487.353760 709.987305,501.756989 
M821.066284,477.499390 
	C821.066284,471.683868 821.066284,465.868347 821.066284,460.052856 
	C820.776184,460.061554 820.486023,460.070282 820.195923,460.078979 
	C820.195923,471.330597 820.195923,482.582214 820.195923,493.833832 
	C820.484375,493.837402 820.772766,493.840942 821.061218,493.844482 
	C821.061218,488.729004 821.061218,483.613495 821.066284,477.499390 
M772.768188,454.880188 
	C764.129578,454.880188 755.490967,454.880188 746.852356,454.880188 
	C746.863098,455.154236 746.873779,455.428284 746.884460,455.702332 
	C756.574158,455.702332 766.263855,455.702332 775.953491,455.702332 
	C775.954468,455.491028 775.955383,455.279724 775.956360,455.068451 
	C775.143616,455.007477 774.330933,454.946533 772.768188,454.880188 
M366.505341,456.130524 
	C371.077576,456.130524 375.649811,456.130524 380.222046,456.130524 
	C380.213989,455.817688 380.205933,455.504852 380.197876,455.192017 
	C371.396301,455.192017 362.594696,455.192017 353.793121,455.192017 
	C353.784973,455.505219 353.776825,455.818390 353.768677,456.131592 
	C357.684448,456.131592 361.600189,456.131592 366.505341,456.130524 
M887.028503,454.453644 
	C887.028503,454.453644 887.051331,454.522247 887.028503,454.453644 
z"/>
<path fill="#163350" opacity="1.000000" stroke="none" 
	d="
M164.246338,403.768738 
	C167.173309,402.721832 170.100281,401.674896 173.443359,400.560181 
	C173.859467,400.492401 174.217896,400.295715 174.217896,400.295715 
	C174.217896,400.295715 174.123260,399.895020 174.123260,399.895020 
	C183.096466,398.539032 192.027039,396.542633 201.050537,395.941772 
	C233.954193,393.750793 261.180634,405.993317 282.412476,430.711945 
	C296.816010,447.480865 305.588165,467.336761 306.983490,489.623413 
	C308.497467,513.805969 301.721405,535.992554 287.694275,555.732056 
	C274.533966,574.251770 256.973480,587.186096 235.035507,593.174988 
	C224.742493,595.984863 213.892059,597.669128 203.242493,597.958374 
	C195.125290,598.178955 186.926559,595.398071 178.389679,593.958496 
	C178.015228,593.964600 178.034500,593.984131 178.034500,593.984131 
	C166.751266,590.299316 156.296844,584.913818 146.913254,577.712402 
	C127.979385,563.181702 115.549103,544.479736 109.311722,521.162231 
	C105.903564,508.421326 105.390442,495.418030 107.163834,483.196594 
	C111.628105,452.430786 126.932587,427.472900 153.746948,410.461639 
	C156.834091,408.503143 159.978729,406.635284 163.488464,404.599304 
	C163.880219,404.473145 164.288651,404.242554 164.288651,404.242554 
	C164.288651,404.242554 164.246338,403.768738 164.246338,403.768738 
M211.348969,432.038757 
	C211.346756,439.198761 211.186203,446.363556 211.400986,453.517029 
	C211.532608,457.901337 209.708374,459.448059 205.469620,459.301605 
	C199.649078,459.100433 193.815659,459.268036 187.987778,459.283234 
	C158.170197,459.360931 138.178024,482.196777 142.068954,511.731476 
	C144.936523,533.498230 166.195023,551.445190 188.274841,550.739624 
	C210.378571,550.033264 230.922440,530.894897 231.784454,508.964233 
	C232.712448,485.355011 232.642181,461.702789 232.788132,438.067963 
	C232.876053,423.831421 235.082840,424.048798 218.720581,424.224335 
	C213.019943,424.285461 211.882904,425.418243 211.348969,432.038757 
M255.134293,523.773804 
	C249.935669,527.907104 243.934235,529.465820 237.415680,529.054016 
	C233.882217,528.830750 231.317169,529.962585 229.630661,533.161621 
	C228.705032,534.917480 227.516739,536.536865 226.421082,538.200745 
	C222.366333,544.358093 223.038620,546.617615 230.357712,548.577698 
	C245.167465,552.543823 257.935089,548.021545 268.908112,538.042480 
	C275.980316,531.610901 275.627167,529.776123 267.791504,524.216980 
	C266.843719,523.544556 265.836090,522.945068 264.947998,522.201965 
	C261.443512,519.269592 258.365021,519.620667 255.134293,523.773804 
M265.984222,485.479523 
	C267.316101,484.482635 268.654205,483.493958 269.978638,482.487305 
	C274.903412,478.744293 275.015167,477.259155 270.842377,472.592896 
	C265.908844,467.075806 259.790100,463.630920 252.614319,461.949341 
	C240.520981,459.115387 237.881500,461.297699 238.300079,473.583313 
	C238.445404,477.848969 240.451736,479.985962 244.540833,481.138916 
	C248.319656,482.204407 252.387405,483.476776 255.359116,485.864044 
	C259.143402,488.903992 262.035370,488.814850 265.984222,485.479523 
z"/>
<path fill="#121518" opacity="1.000000" stroke="none" 
	d="
M351.076233,528.654175 
	C351.042419,507.068329 351.008942,485.940216 351.026764,464.812164 
	C351.032745,457.717407 351.742920,457.008667 358.678009,456.954407 
	C365.664856,456.899750 372.653351,456.861023 379.639465,456.947906 
	C399.165955,457.190704 412.826385,468.914276 416.577728,488.182770 
	C420.700226,509.357635 408.491608,528.911804 391.295013,532.082825 
	C379.367584,534.282227 366.866974,533.495605 354.617950,533.629028 
	C353.460724,533.641724 352.271149,530.688232 351.076233,528.654175 
M378.282043,469.098480 
	C376.784760,469.092834 375.287415,469.077026 373.790161,469.083221 
	C365.404907,469.117950 364.979645,469.545746 364.913513,477.768097 
	C364.811859,490.407959 364.602478,503.048370 364.698700,515.686584 
	C364.711121,517.319885 366.149445,520.269714 367.133972,520.360229 
	C375.672577,521.144775 384.507812,522.848511 392.386261,517.859009 
	C401.794006,511.901001 406.022095,500.006897 403.075256,488.994751 
	C399.866516,477.003876 391.503021,470.040192 378.282043,469.098480 
z"/>
<path fill="#131619" opacity="1.000000" stroke="none" 
	d="
M923.946289,517.859009 
	C910.184265,536.053894 889.623291,540.396362 870.151001,529.492554 
	C851.940979,519.295593 846.459900,490.095917 859.389648,472.162720 
	C869.276978,458.449188 887.033508,452.609955 903.354553,457.704987 
	C919.408386,462.716553 929.766602,477.284241 930.101196,494.714722 
	C930.259827,502.976501 928.454590,510.545532 923.946289,517.859009 
M874.528625,474.999115 
	C869.114441,479.484039 866.467957,485.421204 865.386475,492.222198 
	C862.647156,509.447632 879.118469,525.440002 896.127014,522.037292 
	C909.587341,519.344543 917.368164,508.879883 916.974731,493.955688 
	C916.693298,483.280365 911.567993,475.404083 902.132446,470.921844 
	C892.611572,466.399139 883.358398,467.892914 874.528625,474.999115 
z"/>
<path fill="#131619" opacity="1.000000" stroke="none" 
	d="
M803.568970,482.717773 
	C803.250061,491.845673 799.562561,498.474457 791.631470,502.436920 
	C788.244202,504.129242 788.190857,506.356781 789.945923,509.360504 
	C793.637512,515.678406 797.272766,522.035583 800.701660,528.498352 
	C802.952026,532.739990 802.203979,533.491699 797.518372,534.093506 
	C790.650024,534.975647 786.165588,532.487854 783.243896,526.131592 
	C780.749878,520.705750 777.559143,515.595093 774.591187,510.393738 
	C772.304932,506.387115 765.260437,504.275970 761.557434,506.843323 
	C760.221680,507.769531 759.320984,510.119995 759.217651,511.878998 
	C758.896118,517.353088 758.973083,522.856262 759.046875,528.346130 
	C759.105713,532.725037 756.824036,534.094360 752.780945,534.103699 
	C748.704285,534.113098 745.967102,533.148315 745.979004,528.355591 
	C746.033386,506.389923 746.015259,484.424042 745.996582,462.458252 
	C745.993408,458.747467 747.713562,456.943756 751.462952,456.966614 
	C760.448059,457.021423 769.472595,456.487274 778.410339,457.148285 
	C793.802795,458.286621 803.415649,466.496765 803.568970,482.717773 
M785.014221,472.394409 
	C784.253662,471.764069 783.528870,470.639038 782.726868,470.580994 
	C775.843567,470.082794 768.945068,469.585571 762.054626,469.630341 
	C761.068481,469.636749 759.374390,472.490662 759.259766,474.115112 
	C758.898743,479.229950 759.097961,484.387238 759.152222,489.527313 
	C759.185059,492.637543 760.723877,494.685242 763.926331,494.754150 
	C768.890564,494.860962 773.919189,495.131989 778.813416,494.501770 
	C784.430725,493.778473 788.600708,490.509216 790.382446,484.871216 
	C792.049683,479.595520 789.494873,475.948547 785.014221,472.394409 
z"/>
<path fill="#121518" opacity="1.000000" stroke="none" 
	d="
M664.064880,496.989258 
	C664.073792,485.663422 664.031982,474.834930 664.112549,464.007355 
	C664.157776,457.931885 665.192566,456.981079 671.074036,456.967163 
	C676.975769,456.953186 677.979736,457.878021 678.015747,463.991211 
	C678.085388,475.818451 677.979980,487.647034 678.095459,499.473602 
	C678.127747,502.783661 678.361328,506.156494 679.051758,509.383026 
	C681.005127,518.510437 687.683044,522.880249 697.668640,521.894714 
	C705.517639,521.120056 711.695801,514.626465 711.818237,506.403534 
	C712.026428,492.413116 711.891724,478.417877 711.964172,464.424988 
	C711.998901,457.717865 717.420959,454.354004 723.354919,457.560394 
	C724.626160,458.247375 725.781555,460.472504 725.780457,461.988129 
	C725.767944,479.469482 726.211243,496.995972 725.065613,514.413940 
	C724.434570,524.008850 716.831116,530.044678 708.191040,533.121460 
	C699.067566,536.370361 689.485779,536.260315 680.351318,532.338501 
	C671.388550,528.490417 665.908691,521.746765 664.797546,511.935547 
	C664.255920,507.153046 664.291260,502.305206 664.064880,496.989258 
z"/>
<path fill="#131619" opacity="1.000000" stroke="none" 
	d="
M630.367554,531.445007 
	C614.023438,538.754150 596.348694,535.088013 584.852295,522.232971 
	C574.240051,510.366577 572.147339,489.261475 580.201721,475.332336 
	C588.861450,460.356293 605.401306,452.926422 622.480652,457.100311 
	C632.270142,459.492676 640.514587,464.773315 645.843323,473.773010 
	C648.597107,478.423889 647.192383,480.793671 641.733093,481.044922 
	C636.845398,481.269836 633.108887,480.237671 629.616821,475.990631 
	C620.164917,464.495300 600.416138,467.453827 592.678650,481.108582 
	C585.701172,493.422028 588.840515,509.588684 600.111511,518.410034 
	C607.861633,524.475647 621.611206,524.036560 628.150452,516.783325 
	C632.648865,511.793732 637.864563,511.683167 643.595032,512.037903 
	C647.019531,512.249878 647.545410,514.112915 646.061157,516.770691 
	C642.470764,523.199402 637.311218,528.018921 630.367554,531.445007 
z"/>
<path fill="#131619" opacity="1.000000" stroke="none" 
	d="
M480.985535,463.848083 
	C480.833893,468.361176 478.129486,469.064911 474.794403,469.052063 
	C467.228241,469.022919 459.661896,469.042908 452.096863,470.052063 
	C460.686920,470.052063 469.276978,470.052063 477.867035,470.052063 
	C477.866608,470.334869 477.866211,470.617676 477.865814,470.900482 
	C470.609100,470.900482 463.351929,470.847778 456.095886,470.916809 
	C450.075897,470.974091 449.168365,471.933075 448.997345,477.900085 
	C448.651947,489.949310 448.652130,489.944733 460.477783,489.944977 
	C464.142975,489.945068 467.808136,489.994843 471.473328,489.992188 
	C475.117401,489.989532 477.013397,491.589294 477.010925,495.427521 
	C477.008514,499.182129 475.323120,500.976288 471.587006,500.967407 
	C466.922241,500.956360 462.257233,500.988098 457.592468,501.020721 
	C449.404358,501.078003 448.962494,501.537415 448.935699,509.933594 
	C448.928345,512.237244 448.934570,514.540955 448.188232,516.868347 
	C448.188232,513.324890 448.188232,509.781403 448.188232,505.849365 
	C447.567261,506.344696 447.234863,506.480316 447.225281,506.635864 
	C446.332947,521.100159 446.334564,521.091492 460.685364,521.091553 
	C465.683319,521.091553 470.681335,521.176392 475.679230,521.168030 
	C480.259827,521.160339 481.085144,523.976624 481.047272,527.799072 
	C481.010986,531.460693 480.084137,534.030151 475.796112,534.023804 
	C463.300720,534.005249 450.805054,533.997192 438.309937,534.062317 
	C435.078857,534.079102 433.910950,532.569458 433.920563,529.466370 
	C433.989227,507.307495 434.020111,485.148376 433.975006,462.989502 
	C433.966400,458.758606 435.846344,456.949707 440.021179,456.972992 
	C451.516724,457.037109 463.014130,457.070709 474.508423,456.926605 
	C479.134369,456.868652 481.455444,458.632812 480.985535,463.848083 
M447.999390,479.699646 
	C447.921814,478.190033 447.844269,476.680420 447.766693,475.170807 
	C447.625031,475.189087 447.483337,475.207336 447.341675,475.225616 
	C447.341675,478.774902 447.341675,482.324158 447.341675,485.873413 
	C447.560638,485.872253 447.779633,485.871094 447.998596,485.869934 
	C447.998596,484.079926 447.998596,482.289886 447.999390,479.699646 
z"/>
<path fill="#121518" opacity="1.000000" stroke="none" 
	d="
M551.601379,500.567566 
	C548.572144,509.258453 545.758301,517.614380 542.769226,525.907104 
	C541.311523,529.951172 540.039185,534.024048 534.261108,534.126465 
	C524.252014,534.303894 523.615540,534.400391 520.914612,527.311157 
	C516.904236,516.784729 513.249573,506.123138 509.405029,495.533051 
	C505.325348,484.295227 501.183838,473.079834 497.120392,461.836212 
	C496.688660,460.641724 496.599243,459.323517 496.363434,458.125671 
	C505.139343,454.933197 509.986847,456.392151 512.780334,464.135559 
	C518.245911,479.285919 523.100708,494.656708 528.204956,509.937378 
	C528.626526,511.199402 528.811646,512.595215 529.474426,513.710327 
	C530.797424,515.936340 532.453918,516.565979 533.806091,513.714050 
	C534.586243,512.068665 535.086914,510.286102 535.659546,508.547546 
	C540.449890,494.003906 545.111755,479.416565 550.053833,464.924744 
	C552.915527,456.533203 558.103882,454.590088 567.135193,458.148895 
	C562.006470,472.164185 556.875549,486.185425 551.601379,500.567566 
z"/>
<path fill="#131619" opacity="1.000000" stroke="none" 
	d="
M835.052612,467.068359 
	C835.046448,487.213226 835.065918,506.870422 835.020813,526.527405 
	C835.005737,533.117981 833.715759,534.173279 827.547363,534.083435 
	C823.031372,534.017700 821.930481,531.572876 821.939331,527.666260 
	C821.987732,506.188385 822.007385,484.710175 821.924255,463.232513 
	C821.907166,458.828949 823.636780,456.879700 828.155823,456.906219 
	C832.519409,456.931824 835.362671,458.076752 835.049622,463.082977 
	C834.977051,464.244263 835.048096,465.414459 835.052612,467.068359 
z"/>
<path fill="#131619" opacity="1.000000" stroke="none" 
	d="
M452.000946,456.119843 
	C445.921448,456.121063 440.341644,456.121063 434.761841,456.121063 
	C434.763000,455.821106 434.764160,455.521179 434.765320,455.221222 
	C449.853180,455.221222 464.941010,455.221222 480.028870,455.221222 
	C480.040131,455.520355 480.051392,455.819489 480.062653,456.118622 
	C470.875305,456.118622 461.687988,456.118622 452.000946,456.119843 
z"/>
<path fill="#131619" opacity="1.000000" stroke="none" 
	d="
M709.986450,501.349976 
	C709.985657,487.353760 709.985657,473.764526 709.985657,460.175323 
	C710.206787,460.173431 710.427856,460.171539 710.648987,460.169647 
	C710.648987,475.108276 710.648987,490.046906 710.648987,504.985504 
	C710.496155,504.995789 710.343384,505.006073 710.190552,505.016357 
	C710.122803,503.929901 710.055054,502.843445 709.986450,501.349976 
z"/>
<path fill="#131619" opacity="1.000000" stroke="none" 
	d="
M821.063721,477.998688 
	C821.061218,483.613495 821.061218,488.729004 821.061218,493.844482 
	C820.772766,493.840942 820.484375,493.837402 820.195923,493.833832 
	C820.195923,482.582214 820.195923,471.330597 820.195923,460.078979 
	C820.486023,460.070282 820.776184,460.061554 821.066284,460.052856 
	C821.066284,465.868347 821.066284,471.683868 821.063721,477.998688 
z"/>
<path fill="#131619" opacity="1.000000" stroke="none" 
	d="
M773.143188,454.882874 
	C774.330933,454.946533 775.143616,455.007477 775.956360,455.068451 
	C775.955383,455.279724 775.954468,455.491028 775.953491,455.702332 
	C766.263855,455.702332 756.574158,455.702332 746.884460,455.702332 
	C746.873779,455.428284 746.863098,455.154236 746.852356,454.880188 
	C755.490967,454.880188 764.129578,454.880188 773.143188,454.882874 
z"/>
<path fill="#131619" opacity="1.000000" stroke="none" 
	d="
M366.010651,456.131042 
	C361.600189,456.131592 357.684448,456.131592 353.768677,456.131592 
	C353.776825,455.818390 353.784973,455.505219 353.793121,455.192017 
	C362.594696,455.192017 371.396301,455.192017 380.197876,455.192017 
	C380.205933,455.504852 380.213989,455.817688 380.222046,456.130524 
	C375.649811,456.130524 371.077576,456.130524 366.010651,456.131042 
z"/>
<path fill="#131619" opacity="1.000000" stroke="none" 
	d="
M887.039917,454.487946 
	C887.051331,454.522247 887.028503,454.453644 887.039917,454.487946 
z"/>
<path fill="#163350" opacity="1.000000" stroke="none" 
	d="
M178.007935,593.952759 
	C178.000626,593.940918 178.020782,594.061584 178.027649,594.022827 
	C178.034500,593.984131 178.015228,593.964600 178.007935,593.952759 
z"/>
<path fill="#000105" opacity="1.000000" stroke="none" 
	d="
M211.347168,431.618164 
	C211.882904,425.418243 213.019943,424.285461 218.720581,424.224335 
	C235.082840,424.048798 232.876053,423.831421 232.788132,438.067963 
	C232.642181,461.702789 232.712448,485.355011 231.784454,508.964233 
	C230.922440,530.894897 210.378571,550.033264 188.274841,550.739624 
	C166.195023,551.445190 144.936523,533.498230 142.068954,511.731476 
	C138.178024,482.196777 158.170197,459.360931 187.987778,459.283234 
	C193.815659,459.268036 199.649078,459.100433 205.469620,459.301605 
	C209.708374,459.448059 211.532608,457.901337 211.400986,453.517029 
	C211.186203,446.363556 211.346756,439.198761 211.347168,431.618164 
M165.180527,516.119507 
	C171.350708,526.867065 181.233307,531.416443 192.458801,528.676941 
	C203.316132,526.027161 210.996689,516.220032 211.242447,504.480469 
	C211.374954,498.150543 211.206345,491.814728 211.304459,485.483582 
	C211.357071,482.088867 209.822189,480.647125 206.495331,480.675964 
	C199.996735,480.732269 193.471970,481.050720 187.002762,480.607727 
	C166.801895,479.224426 157.137650,501.946472 165.180527,516.119507 
M230.918945,442.513123 
	C230.918945,449.398651 230.918945,456.284180 230.918945,463.169708 
	C231.204025,463.162872 231.489090,463.156006 231.774170,463.149170 
	C231.774170,452.153259 231.774170,441.157379 231.774170,430.161499 
	C231.485931,430.161133 231.197693,430.160797 230.909454,430.160461 
	C230.909454,433.947571 230.909454,437.734650 230.918945,442.513123 
z"/>
<path fill="#000105" opacity="1.000000" stroke="none" 
	d="
M255.397339,523.536377 
	C258.365021,519.620667 261.443512,519.269592 264.947998,522.201965 
	C265.836090,522.945068 266.843719,523.544556 267.791504,524.216980 
	C275.627167,529.776123 275.980316,531.610901 268.908112,538.042480 
	C257.935089,548.021545 245.167465,552.543823 230.357712,548.577698 
	C223.038620,546.617615 222.366333,544.358093 226.421082,538.200745 
	C227.516739,536.536865 228.705032,534.917480 229.630661,533.161621 
	C231.317169,529.962585 233.882217,528.830750 237.415680,529.054016 
	C243.934235,529.465820 249.935669,527.907104 255.397339,523.536377 
z"/>
<path fill="#000105" opacity="1.000000" stroke="none" 
	d="
M265.687866,485.682129 
	C262.035370,488.814850 259.143402,488.903992 255.359116,485.864044 
	C252.387405,483.476776 248.319656,482.204407 244.540833,481.138916 
	C240.451736,479.985962 238.445404,477.848969 238.300079,473.583313 
	C237.881500,461.297699 240.520981,459.115387 252.614319,461.949341 
	C259.790100,463.630920 265.908844,467.075806 270.842377,472.592896 
	C275.015167,477.259155 274.903412,478.744293 269.978638,482.487305 
	C268.654205,483.493958 267.316101,484.482635 265.687866,485.682129 
z"/>
<path fill="#000000" opacity="1.000000" stroke="none" 
	d="
M164.093719,403.925323 
	C164.246338,403.768738 164.288651,404.242554 164.288651,404.242554 
	C164.288651,404.242554 163.880219,404.473145 163.757812,404.433899 
	C163.635391,404.394623 163.941101,404.081909 164.093719,403.925323 
z"/>
<path fill="#000000" opacity="1.000000" stroke="none" 
	d="
M174.002884,400.021912 
	C174.123260,399.895020 174.217896,400.295715 174.217896,400.295715 
	C174.217896,400.295715 173.859467,400.492401 173.751160,400.447998 
	C173.642868,400.403595 173.882507,400.148773 174.002884,400.021912 
z"/>
<path fill="#000001" opacity="1.000000" stroke="none" 
	d="
M378.744019,469.109528 
	C391.503021,470.040192 399.866516,477.003876 403.075256,488.994751 
	C406.022095,500.006897 401.794006,511.901001 392.386261,517.859009 
	C384.507812,522.848511 375.672577,521.144775 367.133972,520.360229 
	C366.149445,520.269714 364.711121,517.319885 364.698700,515.686584 
	C364.602478,503.048370 364.811859,490.407959 364.913513,477.768097 
	C364.979645,469.545746 365.404907,469.117950 373.790161,469.083221 
	C375.287415,469.077026 376.784760,469.092834 378.744019,469.109528 
z"/>
<path fill="#000001" opacity="1.000000" stroke="none" 
	d="
M874.782959,474.745056 
	C883.358398,467.892914 892.611572,466.399139 902.132446,470.921844 
	C911.567993,475.404083 916.693298,483.280365 916.974731,493.955688 
	C917.368164,508.879883 909.587341,519.344543 896.127014,522.037292 
	C879.118469,525.440002 862.647156,509.447632 865.386475,492.222198 
	C866.467957,485.421204 869.114441,479.484039 874.782959,474.745056 
z"/>
<path fill="#000001" opacity="1.000000" stroke="none" 
	d="
M785.241821,472.678650 
	C789.494873,475.948547 792.049683,479.595520 790.382446,484.871216 
	C788.600708,490.509216 784.430725,493.778473 778.813416,494.501770 
	C773.919189,495.131989 768.890564,494.860962 763.926331,494.754150 
	C760.723877,494.685242 759.185059,492.637543 759.152222,489.527313 
	C759.097961,484.387238 758.898743,479.229950 759.259766,474.115112 
	C759.374390,472.490662 761.068481,469.636749 762.054626,469.630341 
	C768.945068,469.585571 775.843567,470.082794 782.726868,470.580994 
	C783.528870,470.639038 784.253662,471.764069 785.241821,472.678650 
z"/>
<path fill="#000000" opacity="1.000000" stroke="none" 
	d="
M447.998993,480.099762 
	C447.998596,482.289886 447.998596,484.079926 447.998596,485.869934 
	C447.779633,485.871094 447.560638,485.872253 447.341675,485.873413 
	C447.341675,482.324158 447.341675,478.774902 447.341675,475.225616 
	C447.483337,475.207336 447.625031,475.189087 447.766693,475.170807 
	C447.844269,476.680420 447.921814,478.190033 447.998993,480.099762 
z"/>
<path fill="#163350" opacity="1.000000" stroke="none" 
	d="
M165.021088,515.774902 
	C157.137650,501.946472 166.801895,479.224426 187.002762,480.607727 
	C193.471970,481.050720 199.996735,480.732269 206.495331,480.675964 
	C209.822189,480.647125 211.357071,482.088867 211.304459,485.483582 
	C211.206345,491.814728 211.374954,498.150543 211.242447,504.480469 
	C210.996689,516.220032 203.316132,526.027161 192.458801,528.676941 
	C181.233307,531.416443 171.350708,526.867065 165.021088,515.774902 
z"/>
<path fill="#131619" opacity="1.000000" stroke="none" 
	d="
M230.914200,442.017456 
	C230.909454,437.734650 230.909454,433.947571 230.909454,430.160461 
	C231.197693,430.160797 231.485931,430.161133 231.774170,430.161499 
	C231.774170,441.157379 231.774170,452.153259 231.774170,463.149170 
	C231.489090,463.156006 231.204025,463.162872 230.918945,463.169708 
	C230.918945,456.284180 230.918945,449.398651 230.914200,442.017456 
z"/>
</svg>